# xmcd
#
# Track frame offsets:
#	150
#	2525
#	13862
#	28037
#	45887
#	52812
#	68662
#	74487
#	89650
#	96025
#	111712
#	120025
#	130675
#	137975
#	150525
#	161937
#	167425
#	178050
#	184425
#	191187
#	202175
#	206475
#
# Disc length: 2868 seconds
# Revision: 0
# Processed by: cddbd v1.5.2PL0 Copyright (c) Steve Scherf et al.
# Submitted via: dBpowerAMP V12.0
#
DISCID=370b3216
DTITLE=Max Goldt - Restaurants, Restaurants, Restaurants
DYEAR=1986
DGENRE=Speech
TTITLE0=Dürrenmatt
TTITLE1=Ein Kopf wird durch die Stadt getragen
TTITLE2=Das anatomische Wunder
TTITLE3=Einmarsch der Hauptstädterinnen
TTITLE4=Das Blaue Band der Sympathie
TTITLE5=Träume
TTITLE6=Welpen spielen (und stoßen dabei ein Glas Sekt um)
TTITLE7=Pop und Klassik
TTITLE8=Metzgern missfällt Käsereklame
TTITLE9=Kleines Reisetelegramm
TTITLE10=Unter einem grünen Dach
TTITLE11=Ein Arzt wie er nicht sein soll
TTITLE12=Kalfaktor ist tot
TTITLE13=Wenn ich König wär
TTITLE14=Dieb der Verdeutlichung
TTITLE15=Dialog mit schlimmen Fräulein
TTITLE16=Eine bunte Reise (Doch daheim ein Todesfall! Rasch nach Haus!)
TTITLE17=Holz vor der Hüttn
TTITLE18=Das Dirnenorchester von Bukarest
TTITLE19=Quiek! (Ein asiatisches Kollektivschicksal)
TTITLE20=Einwegwindmühlen
TTITLE21=Sommerkeuch in Arni Astakühl
EXTD=
EXTT0=
EXTT1=
EXTT2=
EXTT3=
EXTT4=
EXTT5=
EXTT6=
EXTT7=
EXTT8=
EXTT9=
EXTT10=
EXTT11=
EXTT12=
EXTT13=
EXTT14=
EXTT15=
EXTT16=
EXTT17=
EXTT18=
EXTT19=
EXTT20=
EXTT21=
PLAYORDER=
